<?xml version="1.0" standalone="no"?>
<svg xmlns="http://www.w3.org/2000/svg" viewBox="0 0 150.298 29" width="150.298" height="29"><g fill="#000000" color="#000000" transform="translate(0, 0) scale(0.6041667)"><svg width="33.0" height="48.0" x="0.0" y="0.0" viewBox="0 0 33 48"><path fill="currentColor" fill-rule="evenodd" d="M32.913 32.856v5.594l-2.298 1.335-4.82 2.797-4.517 2.62L16.458 48l-4.822-2.797 4.821-2.798 4.516-2.62 4.821-2.798 4.11-2.386 3.01-1.745zm0-10.837v5.595l-2.703 1.569-4.821 2.798-4.11 2.385-4.822 2.797-4.517 2.622-4.82 2.797L2.3 39.785l4.821-2.798 4.516-2.62 4.821-2.798 4.11-2.386 4.822-2.797 4.516-2.621 3.008-1.746zm0-10.366v5.595l-2.298 1.334-4.82 2.797L21.277 24l-4.82 2.799-4.11 2.385-4.823 2.798L3.01 34.6.001 36.347v-5.595l2.704-1.57 4.82-2.797L11.636 24l4.821-2.797 4.516-2.62 4.821-2.8 4.11-2.384 3.01-1.746zm-7.524-6.47l4.82 2.798-4.82 2.797-4.11 2.385-4.822 2.798-4.516 2.621L7.12 21.38l-4.11 2.386L0 25.51v-5.595L2.3 18.582l4.82-2.798 4.517-2.621 4.82-2.797 4.111-2.385 4.822-2.798zM16.457 0l4.822 2.798-4.822 2.797-4.11 2.386-4.822 2.797-4.516 2.62-3.008 1.747L0 9.55l2.705-1.57 4.82-2.797 4.111-2.385L16.456 0z"></path></svg></g><line x1="31.938" y1="1" x2="31.938" y2="28" stroke="#e57907" stroke-linecap="round"></line><path fill="#e57907" fill-rule="nonzero" d="M3.10 14.33L3.96 14.40Q4.01 14.78 4.01 15.06Q4.01 15.34 3.94 15.74L3.94 15.74Q3.10 15.72 1.99 15.72Q0.89 15.72 0.07 15.74L0.07 15.74Q0 15.38 0 15.11Q0 14.83 0.05 14.40L0.05 14.40L0.89 14.33Q1.08 11.74 1.08 7.72Q1.08 3.70 0.86 1.70L0.86 1.70L0.05 1.63Q0 1.25 0 0.97Q0 0.70 0.07 0.29L0.07 0.29Q0.91 0.31 2.02 0.31Q3.12 0.31 3.94 0.29L3.94 0.29Q4.01 0.65 4.01 0.92Q4.01 1.20 3.96 1.63L3.96 1.63L3.05 1.70Q2.88 3.82 2.88 7.10L2.88 7.10Q4.18 7.25 6 7.25Q7.82 7.25 9.48 7.06L9.48 7.06Q9.43 3.24 9.26 1.70L9.26 1.70L8.45 1.63Q8.40 1.25 8.40 0.97Q8.40 0.70 8.47 0.29L8.47 0.29Q9.31 0.31 10.42 0.31Q11.52 0.31 12.34 0.29L12.34 0.29Q12.41 0.65 12.41 0.92Q12.41 1.20 12.36 1.63L12.36 1.63L11.45 1.70Q11.28 3.65 11.28 7.73Q11.28 11.81 11.50 14.33L11.50 14.33L12.36 14.40Q12.41 14.78 12.41 15.06Q12.41 15.34 12.34 15.74L12.34 15.74Q11.50 15.72 10.39 15.72Q9.29 15.72 8.47 15.74L8.47 15.74Q8.40 15.38 8.40 15.11Q8.40 14.83 8.45 14.40L8.45 14.40L9.29 14.33Q9.43 12.24 9.48 8.98L9.48 8.98Q7.94 8.81 6 8.81Q4.06 8.81 2.88 8.98L2.88 8.98Q2.93 12.38 3.10 14.33L3.10 14.33ZM19.25 14.40L19.25 14.40Q19.25 15.12 18.82 15.60Q18.38 16.08 17.50 16.08L17.50 16.08Q16.13 16.08 16.13 14.69L16.13 14.69Q16.13 12.96 17.88 12.96L17.88 12.96Q19.25 12.96 19.25 14.40ZM35.14 1.73L34.25 1.66Q34.20 1.13 34.20 0.94Q34.20 0.74 34.27 0.31L34.27 0.31Q34.85 0.34 36.28 0.34Q37.70 0.34 38.23 0.31L38.23 0.31Q38.30 0.67 38.30 0.85Q38.30 1.03 38.26 1.66L38.26 1.66L37.37 1.73L32.69 7.27Q35.11 10.97 35.90 12.10Q36.70 13.22 37.54 14.21L37.54 14.21L38.66 14.28Q38.71 14.66 38.71 15Q38.71 15.34 38.64 15.67L38.64 15.67L35.78 15.79Q35.62 15 32.78 10.82L32.78 10.82Q31.58 9.05 31.46 8.83L31.46 8.83L30.43 10.15Q30.48 12.60 30.62 14.33L30.62 14.33L31.49 14.40Q31.54 14.93 31.54 15.13Q31.54 15.34 31.46 15.74L31.46 15.74Q30.79 15.72 29.50 15.72Q28.20 15.72 27.60 15.74L27.60 15.74Q27.53 15.38 27.53 15.06Q27.53 14.74 27.58 14.40L27.58 14.40L28.42 14.33Q28.61 11.69 28.61 7.67Q28.61 3.65 28.39 1.70L28.39 1.70L27.58 1.63Q27.53 1.10 27.53 0.91Q27.53 0.72 27.60 0.29L27.60 0.29Q28.25 0.31 29.56 0.31Q30.86 0.31 31.46 0.29L31.46 0.29Q31.54 0.65 31.54 0.83Q31.54 1.01 31.49 1.63L31.49 1.63L30.58 1.70Q30.41 3.82 30.41 8.06L30.41 8.06Q34.22 3.19 35.14 1.73L35.14 1.73ZM42.43 1.75Q42.36 1.46 42.36 1.01Q42.36 0.55 42.38 0.41L42.38 0.41Q44.50 0.14 45.53 0.14Q46.56 0.14 47.28 0.38L47.28 0.38Q47.86 4.90 51.29 14.33L51.29 14.33L52.18 14.40Q52.22 14.93 52.22 15.13Q52.22 15.34 52.15 15.74L52.15 15.74Q51.48 15.72 50.06 15.72Q48.65 15.72 48.10 15.74L48.10 15.74Q48.02 15.38 48.02 15.06Q48.02 14.74 48.07 14.40L48.07 14.40L48.91 14.33Q48.79 13.75 48.53 12.66Q48.26 11.57 48.24 11.45L48.24 11.45Q46.87 11.38 45.28 11.38Q43.68 11.38 42.29 11.47L42.29 11.47L41.62 14.33L42.53 14.40Q42.58 14.93 42.58 15.13Q42.58 15.34 42.50 15.74L42.50 15.74Q41.93 15.72 40.62 15.72Q39.31 15.72 38.78 15.74L38.78 15.74Q38.71 15.38 38.71 15.06Q38.71 14.74 38.76 14.40L38.76 14.40L39.60 14.33Q42.48 6.43 43.39 1.82L43.39 1.82L42.43 1.75ZM42.72 9.79L42.72 9.79Q43.54 9.82 45.17 9.82Q46.80 9.82 47.81 9.74L47.81 9.74Q46.68 5.47 45.43 1.85L45.43 1.85L45.29 1.85Q43.87 5.28 42.72 9.79ZM69.36 0.41Q69.38 0.60 69.38 1.01Q69.38 1.42 69.31 1.75L69.31 1.75L68.40 1.82Q68.38 2.50 68.38 3.82L68.38 3.82Q68.38 9.70 68.90 14.33L68.90 14.33L69.79 14.40Q69.84 14.78 69.84 15.06Q69.84 15.34 69.77 15.74L69.77 15.74Q68.93 15.72 67.82 15.72Q66.72 15.72 65.90 15.74L65.90 15.74Q65.83 15.38 65.83 15.11Q65.83 14.83 65.88 14.40L65.88 14.40L66.67 14.33Q66.72 12.60 66.72 10.38Q66.72 8.16 66.50 4.20L66.50 4.20Q66.26 4.70 65.30 6.65L65.30 6.65Q63.17 10.90 62.38 12.91L62.38 12.91Q61.90 13.10 61.36 13.10Q60.82 13.10 60.62 13.08L60.62 13.08Q59.78 11.06 58.24 8.20Q56.69 5.33 56.40 4.80L56.40 4.80Q56.21 8.21 56.21 10.57Q56.21 12.94 56.26 14.33L56.26 14.33L57.14 14.40Q57.19 14.78 57.19 15.06Q57.19 15.34 57.12 15.74L57.12 15.74Q56.35 15.72 55.34 15.72Q54.34 15.72 53.59 15.74L53.59 15.74Q53.52 15.38 53.52 15.11Q53.52 14.83 53.57 14.40L53.57 14.40L54.41 14.33Q54.91 9.96 54.91 3.98L54.91 3.98Q54.91 2.83 54.84 1.82L54.84 1.82L53.95 1.75Q53.88 1.42 53.88 1.01Q53.88 0.60 53.90 0.41L53.90 0.41Q55.87 0.36 56.88 0.29L56.88 0.29Q57.29 2.50 61.73 10.68L61.73 10.68Q65.40 3.50 66.02 0.29L66.02 0.29Q66.91 0.36 69.36 0.41L69.36 0.41ZM74.86 1.75Q74.78 1.46 74.78 1.01Q74.78 0.55 74.81 0.41L74.81 0.41Q76.92 0.14 77.95 0.14Q78.98 0.14 79.70 0.38L79.70 0.38Q80.28 4.90 83.71 14.33L83.71 14.33L84.60 14.40Q84.65 14.93 84.65 15.13Q84.65 15.34 84.58 15.74L84.58 15.74Q83.90 15.72 82.49 15.72Q81.07 15.72 80.52 15.74L80.52 15.74Q80.45 15.38 80.45 15.06Q80.45 14.74 80.50 14.40L80.50 14.40L81.34 14.33Q81.22 13.75 80.95 12.66Q80.69 11.57 80.66 11.45L80.66 11.45Q79.30 11.38 77.70 11.38Q76.10 11.38 74.71 11.47L74.71 11.47L74.04 14.33L74.95 14.40Q75 14.93 75 15.13Q75 15.34 74.93 15.74L74.93 15.74Q74.35 15.72 73.04 15.72Q71.74 15.72 71.21 15.74L71.21 15.74Q71.14 15.38 71.14 15.06Q71.14 14.74 71.18 14.40L71.18 14.40L72.02 14.33Q74.90 6.43 75.82 1.82L75.82 1.82L74.86 1.75ZM75.14 9.79L75.14 9.79Q75.96 9.82 77.59 9.82Q79.22 9.82 80.23 9.74L80.23 9.74Q79.10 5.47 77.86 1.85L77.86 1.85L77.71 1.85Q76.30 5.28 75.14 9.79ZM86.23 14.40L87.07 14.33Q87.29 11.02 87.29 7.34Q87.29 3.67 87.07 1.70L87.07 1.70L86.26 1.63Q86.21 1.25 86.21 0.97Q86.21 0.70 86.28 0.29L86.28 0.29Q87.12 0.31 88.22 0.31Q89.33 0.31 90.14 0.29L90.14 0.29Q90.22 0.65 90.22 0.92Q90.22 1.20 90.17 1.63L90.17 1.63L89.26 1.70Q89.09 3.96 89.09 7.91Q89.09 11.86 89.26 13.90L89.26 13.90Q90 13.97 91.43 13.97Q92.86 13.97 93.60 13.85L93.60 13.85L93.67 12.22Q94.08 12.14 94.40 12.14Q94.73 12.14 95.02 12.17L95.02 12.17Q95.09 13.99 95.23 15.72L95.23 15.72L95.11 15.84Q93.98 15.72 90.53 15.72Q87.07 15.72 86.26 15.74L86.26 15.74Q86.18 15.38 86.18 15.11Q86.18 14.83 86.23 14.40L86.23 14.40ZM96.58 7.87L96.58 7.87Q96.58 0 102.47 0Q108.36 0 108.36 7.87L108.36 7.87Q108.36 9.31 108.25 10.39Q108.14 11.47 107.77 12.60Q107.40 13.73 106.78 14.45Q106.15 15.17 105.06 15.62Q103.97 16.08 102.47 16.08Q100.97 16.08 99.88 15.62Q98.78 15.17 98.16 14.45Q97.54 13.73 97.16 12.60Q96.79 11.47 96.68 10.39Q96.58 9.31 96.58 7.87ZM100.44 13.78L100.44 13.78Q101.26 14.30 102.47 14.30Q103.68 14.30 104.51 13.78Q105.34 13.25 105.74 12.26L105.74 12.26Q106.46 10.56 106.46 7.90L106.46 7.90Q106.46 1.42 102.47 1.42Q98.47 1.42 98.47 7.90L98.47 7.90Q98.47 12.53 100.44 13.78Z" transform="translate(41.938, 6.64)"></path></svg>