<?xml version="1.0" standalone="no"?>
<svg xmlns="http://www.w3.org/2000/svg" viewBox="0 0 258.56 52.480000000000004" width="258.56" height="52.480000000000004"><rect fill="none" stroke="#ae4b07" stroke-width="4" width="254.56" height="48.480000000000004" x="2" y="2"></rect><g fill="#000000" color="#000000" transform="translate(12 12.001) scale(0.5696)"><svg width="50.0" height="50.0" x="0.0" y="0.0" viewBox="0 0 50 50"><path fill="currentColor" fill-rule="nonzero" d="M23.16.25v22.52H.65v26.61h26.61V26.86h22.52V.25H23.16zm0 45.03H4.74V26.86h18.42v18.42zm22.52-22.52H27.25V4.34h18.42v18.42h.01zM31.35 8.43h10.23v10.23H31.35V8.43zM8.83 30.95h10.23v10.23H8.83V30.95z"></path></svg></g><path fill="#000000" fill-rule="nonzero" d="M20.12 28.24L8.68 15.08L2.96 20.88L2.96 28.24L0 28.24L0 0.24L2.96 0.24L2.96 17.16L19.40 0.24L22.80 0.24L10.68 12.92L23.64 28.24L20.12 28.24ZM39.48 0Q44.92 0 48.06 3.18Q51.20 6.36 51.20 12.36L51.20 12.36L51.20 28.24L48.28 28.24L48.28 20L30.68 20L30.68 28.24L27.80 28.24L27.80 12.36Q27.80 6.36 30.94 3.18Q34.08 0 39.48 0L39.48 0ZM30.68 17.44L48.28 17.44L48.28 12.08Q48.28 7.40 45.96 5.02Q43.64 2.64 39.48 2.64L39.48 2.64Q35.32 2.64 33 5.02Q30.68 7.40 30.68 12.08L30.68 12.08L30.68 17.44ZM90.04 0Q94.84 0 97.52 2.76Q100.20 5.52 100.20 10.76L100.20 10.76L100.20 28.24L97.28 28.24L97.28 10.84Q97.28 6.76 95.22 4.70Q93.16 2.64 89.60 2.64L89.60 2.64Q85.84 2.64 83.72 4.82Q81.60 7 81.60 11.48L81.60 11.48L81.60 28.24L78.68 28.24L78.68 10.84Q78.68 6.76 76.68 4.70Q74.68 2.64 71.12 2.64L71.12 2.64Q67.32 2.64 65.18 4.82Q63.04 7 63.04 11.48L63.04 11.48L63.04 28.24L60.08 28.24L60.08 0.24L62.92 0.24L62.92 4.92Q64.08 2.52 66.36 1.26Q68.64 0 71.76 0L71.76 0Q75.04 0 77.38 1.38Q79.72 2.76 80.76 5.24L80.76 5.24Q81.96 2.68 84.38 1.34Q86.80 0 90.04 0L90.04 0ZM120.56 0Q126 0 129.14 3.18Q132.28 6.36 132.28 12.36L132.28 12.36L132.28 28.24L129.36 28.24L129.36 20L111.76 20L111.76 28.24L108.88 28.24L108.88 12.36Q108.88 6.36 112.02 3.18Q115.16 0 120.56 0L120.56 0ZM111.76 17.44L129.36 17.44L129.36 12.08Q129.36 7.40 127.04 5.02Q124.72 2.64 120.56 2.64L120.56 2.64Q116.40 2.64 114.08 5.02Q111.76 7.40 111.76 12.08L111.76 12.08L111.76 17.44ZM141.16 28.24L141.16 0.24L144.12 0.24L144.12 25.68L159.80 25.68L159.80 28.24L141.16 28.24ZM176.40 28.48Q172.24 28.48 168.86 26.62Q165.48 24.76 163.58 21.52Q161.68 18.28 161.68 14.24L161.68 14.24Q161.68 10.20 163.58 6.96Q165.48 3.72 168.86 1.86Q172.24 0 176.40 0L176.40 0Q180.56 0 183.90 1.84Q187.24 3.68 189.16 6.94Q191.08 10.20 191.08 14.24L191.08 14.24Q191.08 18.28 189.16 21.54Q187.24 24.80 183.90 26.64Q180.56 28.48 176.40 28.48L176.40 28.48ZM176.40 25.84Q179.72 25.84 182.40 24.34Q185.08 22.84 186.60 20.18Q188.12 17.52 188.12 14.24L188.12 14.24Q188.12 10.96 186.60 8.30Q185.08 5.64 182.40 4.14Q179.72 2.64 176.40 2.64L176.40 2.64Q173.08 2.64 170.38 4.14Q167.68 5.64 166.14 8.30Q164.60 10.96 164.60 14.24L164.60 14.24Q164.60 17.52 166.14 20.18Q167.68 22.84 170.38 24.34Q173.08 25.84 176.40 25.84L176.40 25.84Z" transform="translate(55.481 12.001) scale(1)"></path></svg>