<?xml version="1.0" standalone="no"?>
<svg xmlns="http://www.w3.org/2000/svg" viewBox="0 0 143.928 29" width="143.928" height="29"><g fill="#ae4b07" color="#ae4b07" transform="translate(0, 0) scale(0.58)"><svg width="50.0" height="50.0" x="0.0" y="0.0" viewBox="0 0 50 50"><path fill="currentColor" fill-rule="nonzero" d="M23.16.25v22.52H.65v26.61h26.61V26.86h22.52V.25H23.16zm0 45.03H4.74V26.86h18.42v18.42zm22.52-22.52H27.25V4.34h18.42v18.42h.01zM31.35 8.43h10.23v10.23H31.35V8.43zM8.83 30.95h10.23v10.23H8.83V30.95z"></path></svg></g><line x1="41" y1="1" x2="41" y2="28" stroke="#000000" stroke-linecap="round"></line><path fill="#000000" fill-rule="nonzero" d="M12.07 17.81L5.21 9.91L1.78 13.39L1.78 17.81L0 17.81L0 1.01L1.78 1.01L1.78 11.16L11.64 1.01L13.68 1.01L6.41 8.62L14.18 17.81L12.07 17.81ZM25.94 5.18L27.65 5.18L27.65 17.81L26.02 17.81L26.02 15.31Q25.25 16.58 23.99 17.26Q22.73 17.93 21.14 17.93L21.14 17.93Q19.37 17.93 17.93 17.11Q16.49 16.30 15.67 14.83Q14.86 13.37 14.86 11.50L14.86 11.50Q14.86 9.62 15.67 8.16Q16.49 6.70 17.93 5.89Q19.37 5.09 21.14 5.09L21.14 5.09Q22.68 5.09 23.92 5.72Q25.15 6.36 25.94 7.58L25.94 7.58L25.94 5.18ZM21.29 16.42Q22.61 16.42 23.68 15.80Q24.74 15.19 25.36 14.06Q25.97 12.94 25.97 11.50L25.97 11.50Q25.97 10.06 25.36 8.93Q24.74 7.80 23.68 7.19Q22.61 6.58 21.29 6.58L21.29 6.58Q19.94 6.58 18.88 7.19Q17.81 7.80 17.20 8.93Q16.58 10.06 16.58 11.50L16.58 11.50Q16.58 12.94 17.20 14.06Q17.81 15.19 18.88 15.80Q19.94 16.42 21.29 16.42L21.29 16.42ZM48.14 5.09Q50.52 5.09 51.88 6.46Q53.23 7.82 53.23 10.49L53.23 10.49L53.23 17.81L51.53 17.81L51.53 10.66Q51.53 8.69 50.58 7.66Q49.63 6.62 47.90 6.62L47.90 6.62Q45.94 6.62 44.81 7.84Q43.68 9.05 43.68 11.18L43.68 11.18L43.68 17.81L41.98 17.81L41.98 10.66Q41.98 8.69 41.03 7.66Q40.08 6.62 38.33 6.62L38.33 6.62Q36.38 6.62 35.24 7.84Q34.10 9.05 34.10 11.18L34.10 11.18L34.10 17.81L32.40 17.81L32.40 5.18L34.03 5.18L34.03 7.49Q34.70 6.34 35.90 5.71Q37.10 5.09 38.66 5.09L38.66 5.09Q40.25 5.09 41.41 5.76Q42.58 6.43 43.15 7.75L43.15 7.75Q43.85 6.50 45.16 5.80Q46.46 5.09 48.14 5.09L48.14 5.09ZM67.73 5.18L69.43 5.18L69.43 17.81L67.80 17.81L67.80 15.31Q67.03 16.58 65.77 17.26Q64.51 17.93 62.93 17.93L62.93 17.93Q61.15 17.93 59.71 17.11Q58.27 16.30 57.46 14.83Q56.64 13.37 56.64 11.50L56.64 11.50Q56.64 9.62 57.46 8.16Q58.27 6.70 59.71 5.89Q61.15 5.09 62.93 5.09L62.93 5.09Q64.46 5.09 65.70 5.72Q66.94 6.36 67.73 7.58L67.73 7.58L67.73 5.18ZM63.07 16.42Q64.39 16.42 65.46 15.80Q66.53 15.19 67.14 14.06Q67.75 12.94 67.75 11.50L67.75 11.50Q67.75 10.06 67.14 8.93Q66.53 7.80 65.46 7.19Q64.39 6.58 63.07 6.58L63.07 6.58Q61.73 6.58 60.66 7.19Q59.59 7.80 58.98 8.93Q58.37 10.06 58.37 11.50L58.37 11.50Q58.37 12.94 58.98 14.06Q59.59 15.19 60.66 15.80Q61.73 16.42 63.07 16.42L63.07 16.42ZM77.74 17.93Q76.03 17.93 75.11 16.97Q74.18 16.01 74.18 14.30L74.18 14.30L74.18 0L75.89 0L75.89 14.16Q75.89 15.29 76.42 15.88Q76.94 16.46 78 16.46L78 16.46Q78.67 16.46 79.15 16.25L79.15 16.25L79.27 17.66Q78.53 17.93 77.74 17.93L77.74 17.93ZM86.52 17.93Q84.70 17.93 83.23 17.10Q81.77 16.27 80.93 14.81Q80.09 13.34 80.09 11.50L80.09 11.50Q80.09 9.65 80.93 8.18Q81.77 6.72 83.23 5.90Q84.70 5.09 86.52 5.09L86.52 5.09Q88.34 5.09 89.81 5.90Q91.27 6.72 92.10 8.18Q92.93 9.65 92.93 11.50L92.93 11.50Q92.93 13.34 92.10 14.81Q91.27 16.27 89.81 17.10Q88.34 17.93 86.52 17.93L86.52 17.93ZM86.52 16.42Q87.86 16.42 88.93 15.80Q90.00 15.19 90.60 14.06Q91.20 12.94 91.20 11.50L91.20 11.50Q91.20 10.06 90.60 8.93Q90.00 7.80 88.93 7.19Q87.86 6.58 86.52 6.58L86.52 6.58Q85.18 6.58 84.11 7.19Q83.04 7.80 82.43 8.93Q81.82 10.06 81.82 11.50L81.82 11.50Q81.82 12.94 82.43 14.06Q83.04 15.19 84.11 15.80Q85.18 16.42 86.52 16.42L86.52 16.42Z" transform="translate(51, 5.596)"></path></svg>